<?xml version="1.0" encoding="UTF-8" standalone="no"?>
<svg
   version="1.0"
   width="3110.9219pt"
   height="2152.6689pt"
   viewBox="0 0 3110.9219 2152.6689"
   preserveAspectRatio="xMidYMid"
   id="svg8"
   sodipodi:docname="db-black.svg"
   xmlns:inkscape="http://www.inkscape.org/namespaces/inkscape"
   xmlns:sodipodi="http://sodipodi.sourceforge.net/DTD/sodipodi-0.dtd"
   xmlns="http://www.w3.org/2000/svg"
   xmlns:svg="http://www.w3.org/2000/svg">
  <defs
     id="defs12" />
  <sodipodi:namedview
     id="namedview10"
     pagecolor="#ffffff"
     bordercolor="#000000"
     borderopacity="0.25"
     inkscape:showpageshadow="2"
     inkscape:pageopacity="0.0"
     inkscape:pagecheckerboard="0"
     inkscape:deskcolor="#d1d1d1"
     inkscape:document-units="pt" />
  <metadata
     id="metadata2">
Created by potrace 1.16, written by Peter Selinger 2001-2019
</metadata>
  <g
     transform="matrix(0.1,0,0,-0.1,-480.88144,3039.9585)"
     fill="#000000"
     stroke="none"
     id="g6">
    <path
       d="m 4850,30392 c -14,-2 -28,-7 -32,-10 -4,-4 -8,-4839 -9,-10745 -1,-8161 2,-10742 10,-10750 9,-9 898,-11 3669,-9 2011,1 3785,5 3942,8 511,9 819,32 1285,96 121,16 258,38 305,48 47,10 130,26 185,34 133,21 275,49 410,79 61,14 151,32 200,41 128,24 326,74 420,106 44,15 100,33 125,39 25,7 53,17 62,22 10,5 26,9 36,9 10,0 22,4 28,8 5,5 29,15 54,22 25,8 50,16 55,20 6,3 28,12 50,19 22,7 49,16 60,21 11,5 74,27 140,49 67,22 174,63 238,91 65,27 123,50 130,50 7,0 46,16 87,36 41,20 96,44 122,55 26,10 95,41 153,69 57,27 107,50 110,50 15,0 400,187 560,273 55,29 145,77 200,106 55,30 127,71 160,91 33,21 116,70 185,110 190,111 457,281 521,331 20,16 64,46 97,66 33,21 90,61 127,88 295,219 277,205 509,393 116,96 201,171 445,397 258,238 391,372 601,605 52,58 102,112 110,120 12,12 176,192 215,236 6,6 42,47 81,90 39,43 84,95 100,114 16,19 37,44 47,55 40,43 340,449 424,575 67,99 194,295 255,392 110,177 148,240 148,243 0,2 23,41 51,87 29,46 61,99 73,118 11,19 23,37 26,40 3,3 11,15 18,28 6,12 18,32 25,45 6,12 14,24 17,27 3,3 16,28 30,55 13,28 51,93 84,145 33,52 75,124 95,160 19,36 58,99 85,141 28,42 72,116 99,165 80,149 444,665 585,829 15,17 38,46 52,65 64,87 159,199 201,240 25,25 75,79 110,120 102,119 154,168 279,261 19,15 71,61 115,103 44,42 125,110 180,151 196,146 279,205 286,205 4,0 26,16 50,36 23,19 108,78 188,131 80,52 171,112 201,134 61,43 151,97 250,151 36,20 97,53 135,74 66,37 145,77 357,178 51,25 125,55 163,67 74,23 166,55 200,69 11,5 65,25 120,45 55,19 120,44 145,55 25,11 81,29 124,40 43,12 87,25 96,30 36,19 370,109 445,119 42,6 120,20 174,32 53,11 125,25 161,30 36,6 90,14 120,19 30,5 118,18 195,30 77,12 176,26 220,31 44,5 584,12 1200,15 1578,9 1678,4 2215,-111 290,-62 570,-155 785,-262 66,-32 129,-64 140,-71 11,-6 54,-27 95,-46 195,-92 438,-254 568,-380 181,-174 448,-502 568,-696 56,-91 178,-342 205,-420 12,-36 33,-90 47,-120 14,-30 38,-109 54,-175 16,-66 45,-177 64,-247 70,-259 133,-686 134,-918 0,-136 -14,-342 -30,-435 -5,-27 -14,-81 -20,-120 -18,-103 -58,-272 -80,-337 -11,-32 -36,-122 -56,-200 -38,-149 -49,-176 -145,-373 -151,-307 -280,-496 -493,-725 -313,-336 -563,-532 -891,-700 -117,-60 -157,-82 -165,-91 -6,-6 -97,-49 -105,-49 -7,0 -79,-32 -170,-75 -130,-62 -329,-137 -429,-161 -54,-14 -115,-32 -135,-40 -20,-9 -81,-26 -136,-39 -55,-13 -136,-32 -180,-44 -149,-38 -587,-110 -794,-131 -69,-7 -1356,-10 -3857,-10 -3448,0 -3757,-1 -3779,-16 -14,-9 -43,-39 -66,-67 -22,-28 -66,-79 -97,-112 -31,-34 -64,-71 -72,-81 -31,-39 -105,-129 -110,-134 -4,-3 -41,-45 -82,-95 -125,-148 -568,-576 -710,-687 -29,-23 -73,-60 -98,-82 -204,-183 -352,-309 -465,-393 -55,-42 -111,-85 -125,-98 -14,-13 -97,-72 -185,-131 -88,-60 -212,-147 -275,-194 -105,-78 -270,-192 -450,-310 -171,-113 -210,-141 -204,-151 7,-11 10507,-6 10724,6 371,19 600,43 920,96 96,16 202,36 235,45 33,8 96,22 140,30 117,23 606,151 775,204 59,19 144,49 195,70 135,55 210,87 260,110 33,16 96,43 140,60 108,42 314,148 460,235 66,40 150,87 187,104 37,18 72,39 79,47 6,8 16,14 22,14 6,0 47,27 93,60 45,33 85,60 89,60 25,0 386,264 505,370 47,41 110,96 140,122 66,55 395,380 465,458 153,170 207,229 245,270 23,25 67,79 98,120 31,41 78,101 105,132 26,32 71,90 98,130 240,352 346,535 502,868 19,41 44,95 56,119 12,25 21,51 21,58 0,7 5,13 10,13 6,0 10,11 10,25 0,14 4,25 9,25 5,0 11,8 14,18 4,9 18,49 31,87 14,39 26,76 26,83 0,11 14,47 51,127 5,11 32,109 59,218 27,110 52,203 55,207 3,5 9,28 14,52 5,24 30,140 54,258 53,250 102,538 118,695 17,158 23,660 10,775 -6,52 -16,147 -22,210 -16,173 -48,404 -69,505 -10,50 -22,113 -25,140 -3,28 -26,127 -50,220 -51,196 -45,171 -85,345 -17,74 -38,162 -47,195 -23,89 -123,389 -134,400 -5,5 -9,16 -9,25 0,9 -15,48 -34,86 -18,38 -43,92 -56,119 -12,28 -38,84 -57,125 -100,211 -92,195 -135,260 -9,14 -34,59 -55,100 -22,41 -52,95 -68,120 -16,25 -52,88 -80,140 -156,288 -297,490 -448,643 -71,73 -146,155 -167,182 -53,71 -291,309 -380,381 -41,33 -115,91 -165,129 -49,38 -103,82 -118,97 -16,16 -50,43 -75,60 -26,17 -49,35 -52,38 -3,3 -30,21 -60,38 -30,18 -82,49 -115,70 -93,58 -175,99 -235,118 -69,22 -80,30 -80,63 1,20 14,35 54,64 154,110 642,659 851,958 104,148 145,209 145,214 0,3 19,36 41,73 69,111 134,224 156,272 11,25 61,128 111,230 84,175 99,206 138,298 9,20 20,46 25,57 19,44 63,175 89,270 15,55 35,120 44,145 39,102 117,384 156,564 27,124 53,298 80,531 50,435 38,1203 -26,1640 -28,190 -33,220 -48,270 -8,28 -26,106 -40,175 -62,299 -185,691 -288,910 -115,244 -375,757 -413,814 -25,36 -54,85 -66,108 -61,121 -348,511 -514,698 -81,91 -283,295 -405,409 -322,298 -415,374 -647,525 -55,36 -134,90 -174,120 -40,31 -100,70 -134,87 -33,18 -76,44 -95,59 -19,15 -64,42 -100,59 -35,18 -69,36 -75,41 -38,31 -442,233 -615,307 -72,31 -145,58 -210,79 -46,15 -57,20 -124,49 -22,10 -71,26 -110,35 -39,10 -93,25 -121,33 -27,8 -77,20 -110,27 -33,7 -71,16 -85,20 -14,4 -52,13 -85,20 -33,6 -78,16 -100,20 -272,59 -639,109 -1040,141 -150,12 -10345,26 -10392,14 -13,-3 -22,-9 -19,-14 3,-4 43,-29 88,-56 46,-26 112,-69 148,-95 36,-26 83,-57 105,-68 46,-23 129,-79 370,-248 94,-65 186,-130 207,-144 198,-135 585,-465 873,-745 23,-22 95,-87 160,-145 214,-189 383,-360 519,-520 100,-119 430,-457 470,-481 30,-19 99,-19 3566,-19 4001,0 3735,5 4275,-81 173,-27 426,-103 583,-175 29,-13 58,-24 64,-24 44,0 509,-286 671,-413 109,-85 347,-310 454,-431 60,-66 119,-132 132,-146 22,-24 91,-112 121,-156 110,-159 175,-259 230,-354 103,-180 142,-263 235,-505 49,-125 106,-335 130,-475 14,-80 33,-174 43,-210 15,-56 17,-116 17,-450 0,-413 -1,-420 -64,-702 -25,-108 -123,-402 -156,-469 -14,-26 -32,-70 -41,-96 -19,-59 -167,-360 -210,-428 -17,-27 -51,-81 -76,-120 -24,-38 -47,-77 -50,-85 -8,-21 -132,-185 -178,-234 -21,-22 -66,-76 -100,-119 -109,-137 -359,-368 -504,-467 -11,-8 -63,-45 -115,-83 -118,-86 -158,-111 -347,-207 -83,-43 -159,-82 -170,-88 -36,-19 -114,-52 -124,-52 -6,0 -18,-4 -28,-9 -23,-12 -77,-35 -132,-57 -25,-9 -49,-21 -55,-26 -5,-4 -17,-8 -27,-8 -9,0 -42,-11 -72,-24 -30,-14 -122,-39 -203,-56 -81,-17 -173,-37 -203,-45 -30,-8 -104,-21 -165,-29 -60,-9 -137,-21 -170,-27 -39,-7 -367,-14 -955,-20 -841,-7 -1016,-13 -1200,-39 -41,-6 -115,-15 -165,-20 -49,-4 -126,-15 -170,-23 -44,-9 -120,-21 -170,-27 -103,-13 -186,-27 -230,-40 -16,-5 -91,-18 -165,-30 -74,-11 -153,-25 -175,-30 -22,-5 -67,-14 -100,-21 -59,-11 -144,-30 -320,-70 -49,-12 -146,-39 -215,-60 -69,-21 -163,-50 -210,-63 -185,-54 -651,-219 -772,-275 -24,-10 -78,-33 -121,-50 -42,-17 -112,-48 -155,-70 -42,-21 -102,-46 -132,-56 -56,-18 -205,-84 -250,-111 -14,-9 -59,-31 -100,-50 -41,-19 -82,-39 -91,-43 -8,-5 -83,-44 -165,-86 -82,-42 -205,-113 -274,-158 -177,-114 -211,-136 -336,-215 -61,-39 -149,-98 -195,-132 -46,-33 -140,-100 -208,-148 -69,-48 -172,-127 -230,-175 -58,-49 -126,-103 -151,-120 -43,-29 -176,-134 -212,-167 -177,-162 -642,-620 -807,-795 -68,-71 -147,-164 -176,-205 -29,-41 -62,-84 -72,-95 -10,-11 -31,-37 -46,-57 -16,-20 -44,-53 -63,-74 -19,-20 -58,-71 -86,-113 -28,-42 -63,-89 -78,-106 -45,-50 -174,-234 -235,-335 -32,-52 -70,-111 -85,-130 -58,-76 -180,-259 -222,-335 -80,-142 -113,-199 -160,-270 -25,-38 -65,-104 -88,-145 -24,-41 -53,-88 -66,-105 -12,-16 -44,-73 -71,-125 -61,-117 -93,-173 -103,-180 -9,-7 -122,-178 -139,-212 -8,-16 -18,-28 -23,-28 -4,0 -8,-5 -8,-12 0,-6 -7,-19 -16,-29 -19,-21 -52,-77 -60,-101 -4,-10 -10,-18 -15,-18 -5,0 -9,-5 -9,-10 0,-6 -27,-50 -61,-98 -33,-48 -114,-168 -180,-267 -195,-292 -369,-515 -565,-725 -29,-30 -69,-76 -90,-102 -55,-66 -501,-508 -604,-597 -329,-287 -374,-325 -435,-369 -223,-159 -282,-200 -319,-220 -22,-13 -65,-39 -93,-58 -29,-19 -55,-34 -59,-34 -3,0 -58,-36 -122,-79 -64,-43 -151,-99 -192,-123 -41,-24 -103,-65 -138,-90 -34,-26 -79,-52 -100,-58 -40,-13 -161,-73 -202,-100 -14,-9 -65,-34 -114,-55 -50,-21 -137,-60 -195,-88 -110,-51 -175,-78 -251,-104 -24,-8 -80,-32 -125,-53 -44,-21 -102,-46 -130,-55 -27,-9 -66,-23 -85,-32 -19,-8 -45,-19 -57,-24 -58,-23 -79,-32 -95,-40 -10,-5 -26,-9 -36,-9 -10,0 -22,-4 -28,-8 -5,-5 -29,-15 -54,-22 -25,-8 -59,-22 -77,-31 -17,-10 -65,-25 -105,-33 -40,-9 -104,-25 -143,-36 -70,-21 -170,-44 -429,-100 -76,-16 -175,-38 -220,-49 -80,-19 -147,-30 -316,-51 -47,-6 -110,-15 -140,-20 -103,-17 -361,-44 -575,-61 -109,-8 -853,-11 -2748,-10 -1428,1 -2604,4 -2612,7 -8,3 -17,20 -20,37 -8,44 -13,16306 -5,16337 3,14 17,31 32,37 20,10 594,13 2736,13 1490,0 2716,-2 2723,-4 8,-3 73,-10 144,-16 143,-12 495,-55 572,-70 111,-22 470,-101 498,-110 17,-5 75,-19 130,-29 194,-38 311,-68 430,-111 28,-10 66,-23 85,-29 19,-5 58,-16 85,-24 28,-8 109,-39 180,-67 72,-29 165,-65 207,-81 42,-15 85,-33 95,-38 10,-6 56,-25 103,-42 47,-18 100,-41 118,-51 18,-10 39,-18 48,-18 19,0 452,-215 604,-300 63,-36 161,-95 217,-132 57,-38 106,-68 109,-68 3,0 25,-13 49,-30 24,-16 46,-30 50,-30 9,0 304,-199 391,-264 44,-34 119,-88 165,-121 136,-97 371,-298 549,-469 52,-50 145,-137 205,-193 61,-56 156,-153 212,-215 264,-291 339,-377 415,-475 46,-58 113,-145 150,-192 104,-133 242,-329 404,-571 119,-177 129,-194 194,-310 20,-36 51,-87 69,-114 28,-41 231,-446 231,-461 0,-5 57,-130 110,-240 52,-107 139,-334 237,-620 92,-268 117,-352 148,-494 8,-36 21,-83 30,-105 8,-23 24,-95 36,-161 41,-240 78,-442 99,-540 24,-115 62,-358 85,-555 15,-123 21,-184 41,-412 9,-104 20,-112 81,-56 26,24 68,57 93,73 25,16 81,63 125,104 88,83 196,178 229,200 12,8 23,18 26,21 3,4 48,37 100,75 52,38 113,83 135,101 22,18 74,54 116,82 42,28 82,56 90,64 34,34 411,295 509,353 58,34 133,81 305,190 28,17 57,35 65,38 8,4 38,20 65,37 28,16 90,51 139,78 98,52 271,164 299,193 20,21 23,90 7,178 -34,202 -92,489 -115,576 -9,33 -32,119 -51,190 -74,285 -93,352 -114,410 -12,33 -26,76 -32,95 -29,100 -204,542 -281,710 -14,30 -62,141 -107,245 -97,223 -369,781 -411,841 -16,24 -29,45 -29,49 0,3 -17,32 -38,63 -21,31 -53,84 -71,117 -18,32 -41,71 -50,85 -10,14 -50,77 -88,140 -115,190 -154,251 -191,304 -20,28 -70,101 -111,161 -41,61 -94,133 -117,161 -23,28 -74,98 -115,155 -156,222 -399,503 -806,934 -78,82 -157,163 -175,179 -18,16 -114,107 -213,201 -99,95 -220,207 -270,250 -49,44 -92,82 -95,85 -3,3 -34,30 -70,60 -36,30 -71,61 -78,67 -7,7 -57,48 -110,90 -53,43 -103,83 -110,91 -8,7 -30,24 -50,39 -21,15 -51,39 -67,53 -94,78 -245,189 -408,300 -64,44 -141,97 -170,118 -88,64 -406,266 -522,332 -60,34 -130,75 -155,90 -25,15 -83,48 -130,72 -47,25 -94,49 -105,56 -68,37 -571,284 -625,307 -36,15 -98,43 -138,62 -40,19 -118,52 -175,73 -56,21 -149,58 -207,82 -147,63 -427,163 -755,272 -71,24 -252,79 -315,96 -19,5 -82,23 -140,38 -58,16 -130,34 -160,41 -30,7 -74,16 -97,21 -24,6 -62,14 -85,19 -24,6 -74,15 -113,21 -38,7 -83,15 -100,20 -16,4 -64,13 -105,20 -41,6 -93,15 -115,20 -238,50 -859,117 -1305,140 -177,9 -7965,20 -8030,12 z"
       id="path4" />
  </g>
</svg>
