<?xml version="1.0" encoding="UTF-8" standalone="no"?>
<svg
   version="1.0"
   width="1029.8704pt"
   height="712.75598pt"
   viewBox="0 0 1029.8704 712.75598"
   preserveAspectRatio="xMidYMid"
   id="svg8"
   sodipodi:docname="db-white.svg"
   xmlns:inkscape="http://www.inkscape.org/namespaces/inkscape"
   xmlns:sodipodi="http://sodipodi.sourceforge.net/DTD/sodipodi-0.dtd"
   xmlns="http://www.w3.org/2000/svg"
   xmlns:svg="http://www.w3.org/2000/svg">
  <defs
     id="defs12" />
  <sodipodi:namedview
     id="namedview10"
     pagecolor="#ffffff"
     bordercolor="#000000"
     borderopacity="0.25"
     inkscape:showpageshadow="2"
     inkscape:pageopacity="0.0"
     inkscape:pagecheckerboard="0"
     inkscape:deskcolor="#d1d1d1"
     inkscape:document-units="pt" />
  <metadata
     id="metadata2">
Created by potrace 1.16, written by Peter Selinger 2001-2019
</metadata>
  <g
     transform="matrix(0.1,0,0,-0.1,-268,1179.9074)"
     fill="#ffffff"
     stroke="none"
     id="g6">
    <path
       d="m 2687,11794 c -4,-4 -7,-1606 -7,-3560 V 4682 l 23,-6 c 25,-6 2429,2 2632,9 378,14 834,115 1155,257 455,202 733,379 1054,672 132,121 349,360 448,493 96,129 155,222 382,606 179,302 381,523 647,709 312,219 588,327 999,390 62,9 219,13 570,13 465,-1 489,-1 588,-23 211,-46 350,-103 500,-204 106,-71 227,-220 297,-363 126,-259 158,-570 86,-840 -115,-431 -447,-705 -1006,-832 l -120,-27 -1307,-3 -1307,-4 -58,-67 c -147,-170 -390,-398 -553,-518 -119,-88 -199,-144 -282,-199 -49,-32 -88,-62 -88,-67 0,-10 3068,-8 3465,3 281,7 380,20 608,78 183,47 278,83 452,171 281,143 473,300 707,580 149,179 277,440 336,685 97,404 95,611 -11,1040 -20,77 -46,169 -60,205 -50,133 -188,387 -264,487 -121,159 -329,344 -460,410 -40,20 -73,37 -73,39 0,1 32,33 71,71 92,88 227,256 290,361 194,319 290,699 274,1087 -12,313 -58,510 -175,760 -125,268 -245,432 -464,631 -276,253 -613,419 -971,478 -215,36 -296,37 -2019,34 l -1698,-3 78,-49 c 273,-171 538,-396 811,-688 l 100,-108 h 1217 c 1333,0 1328,0 1506,-59 316,-106 623,-438 709,-764 52,-199 54,-410 7,-572 -34,-116 -131,-311 -197,-399 -172,-226 -406,-373 -694,-438 -77,-17 -144,-22 -460,-28 -396,-9 -442,-13 -750,-75 -258,-52 -532,-149 -800,-283 -113,-56 -354,-209 -447,-285 -29,-23 -71,-55 -93,-72 -76,-56 -318,-300 -402,-405 -108,-135 -215,-294 -349,-517 -284,-472 -450,-682 -718,-908 -273,-231 -693,-448 -1021,-529 -344,-85 -366,-86 -1394,-86 h -899 l -6,683 c -4,375 -6,1593 -4,2707 l 3,2025 915,3 c 616,2 948,-1 1015,-8 347,-38 739,-171 1039,-352 311,-188 558,-413 783,-713 200,-266 338,-541 427,-846 40,-139 105,-514 106,-614 0,-22 4,-45 8,-52 5,-7 41,17 105,72 128,107 333,253 477,340 223,133 210,123 210,161 0,48 -44,245 -84,379 -100,329 -322,764 -533,1045 -306,409 -720,768 -1160,1009 -390,212 -773,339 -1217,403 -148,21 -177,22 -1546,25 -768,2 -1399,1 -1403,-3 z"
       id="path4" />
  </g>
</svg>
