<svg xmlns="http://www.w3.org/2000/svg" xmlns:xlink="http://www.w3.org/1999/xlink" width="1902" zoomAndPan="magnify" viewBox="0 0 1426.5 225" height="300" preserveAspectRatio="xMidYMid meet" version="1.0"><defs><g/><clipPath id="2a2bd67bfe"><path d="M 0 8.367188 L 1426 8.367188 L 1426 213.601562 L 0 213.601562 Z M 0 8.367188 " clip-rule="nonzero"/></clipPath><clipPath id="9ed4595420"><path d="M 45.207031 8.367188 L 1380.792969 8.367188 C 1392.78125 8.367188 1404.28125 13.128906 1412.757812 21.609375 C 1421.238281 30.085938 1426 41.585938 1426 53.574219 L 1426 168.394531 C 1426 180.382812 1421.238281 191.882812 1412.757812 200.359375 C 1404.28125 208.839844 1392.78125 213.601562 1380.792969 213.601562 L 45.207031 213.601562 C 33.21875 213.601562 21.71875 208.839844 13.242188 200.359375 C 4.761719 191.882812 0 180.382812 0 168.394531 L 0 53.574219 C 0 41.585938 4.761719 30.085938 13.242188 21.609375 C 21.71875 13.128906 33.21875 8.367188 45.207031 8.367188 Z M 45.207031 8.367188 " clip-rule="nonzero"/></clipPath><clipPath id="83b2acb7c7"><path d="M 0 0.367188 L 1426 0.367188 L 1426 205.601562 L 0 205.601562 Z M 0 0.367188 " clip-rule="nonzero"/></clipPath><clipPath id="7a782dce68"><path d="M 45.207031 0.367188 L 1380.792969 0.367188 C 1392.78125 0.367188 1404.28125 5.128906 1412.757812 13.609375 C 1421.238281 22.085938 1426 33.585938 1426 45.574219 L 1426 160.394531 C 1426 172.382812 1421.238281 183.882812 1412.757812 192.359375 C 1404.28125 200.839844 1392.78125 205.601562 1380.792969 205.601562 L 45.207031 205.601562 C 33.21875 205.601562 21.71875 200.839844 13.242188 192.359375 C 4.761719 183.882812 0 172.382812 0 160.394531 L 0 45.574219 C 0 33.585938 4.761719 22.085938 13.242188 13.609375 C 21.71875 5.128906 33.21875 0.367188 45.207031 0.367188 Z M 45.207031 0.367188 " clip-rule="nonzero"/></clipPath><clipPath id="60e2099c66"><rect x="0" width="1426" y="0" height="206"/></clipPath><clipPath id="e6c7a8fbd5"><path d="M 8 0.0390625 L 1422 0.0390625 L 1422 224.960938 L 8 224.960938 Z M 8 0.0390625 " clip-rule="nonzero"/></clipPath><clipPath id="86d610e92f"><rect x="0" width="1414" y="0" height="225"/></clipPath></defs><g clip-path="url(#2a2bd67bfe)"><g clip-path="url(#9ed4595420)"><g transform="matrix(1, 0, 0, 1, 0, 8)"><g clip-path="url(#60e2099c66)"><g clip-path="url(#83b2acb7c7)"><g clip-path="url(#7a782dce68)"><path fill="#323232" d="M 0 0.367188 L 1426.222656 0.367188 L 1426.222656 205.601562 L 0 205.601562 Z M 0 0.367188 " fill-opacity="1" fill-rule="nonzero"/></g></g></g></g></g></g><g clip-path="url(#e6c7a8fbd5)"><g transform="matrix(1, 0, 0, 1, 8, -0.000000000000028415)"><g clip-path="url(#86d610e92f)"><g fill="#ffffff" fill-opacity="1"><g transform="translate(1.046246, 191.405562)"><g><path d="M 137.40625 -164.453125 L 137.40625 0 L 104.390625 0 L 104.390625 -13.734375 C 95.816406 -3.398438 83.40625 1.765625 67.15625 1.765625 C 55.925781 1.765625 45.765625 -0.742188 36.671875 -5.765625 C 27.585938 -10.785156 20.457031 -17.945312 15.28125 -27.25 C 10.113281 -36.5625 7.53125 -47.347656 7.53125 -59.609375 C 7.53125 -71.878906 10.113281 -82.664062 15.28125 -91.96875 C 20.457031 -101.28125 27.585938 -108.445312 36.671875 -113.46875 C 45.765625 -118.488281 55.925781 -121 67.15625 -121 C 82.375 -121 94.265625 -116.203125 102.828125 -106.609375 L 102.828125 -164.453125 Z M 73.140625 -26.59375 C 81.859375 -26.59375 89.097656 -29.582031 94.859375 -35.5625 C 100.617188 -41.550781 103.5 -49.566406 103.5 -59.609375 C 103.5 -69.660156 100.617188 -77.675781 94.859375 -83.65625 C 89.097656 -89.644531 81.859375 -92.640625 73.140625 -92.640625 C 64.273438 -92.640625 56.957031 -89.644531 51.1875 -83.65625 C 45.425781 -77.675781 42.546875 -69.660156 42.546875 -59.609375 C 42.546875 -49.566406 45.425781 -41.550781 51.1875 -35.5625 C 56.957031 -29.582031 64.273438 -26.59375 73.140625 -26.59375 Z M 73.140625 -26.59375 "/></g></g></g><g fill="#ffffff" fill-opacity="1"><g transform="translate(144.876213, 191.405562)"><g><path d="M 72.6875 1.765625 C 60.132812 1.765625 48.867188 -0.851562 38.890625 -6.09375 C 28.921875 -11.34375 21.128906 -18.617188 15.515625 -27.921875 C 9.898438 -37.234375 7.09375 -47.796875 7.09375 -59.609375 C 7.09375 -71.429688 9.898438 -81.992188 15.515625 -91.296875 C 21.128906 -100.609375 28.921875 -107.882812 38.890625 -113.125 C 48.867188 -118.375 60.132812 -121 72.6875 -121 C 85.25 -121 96.476562 -118.375 106.375 -113.125 C 116.28125 -107.882812 124.039062 -100.609375 129.65625 -91.296875 C 135.269531 -81.992188 138.078125 -71.429688 138.078125 -59.609375 C 138.078125 -47.796875 135.269531 -37.234375 129.65625 -27.921875 C 124.039062 -18.617188 116.28125 -11.34375 106.375 -6.09375 C 96.476562 -0.851562 85.25 1.765625 72.6875 1.765625 Z M 72.6875 -26.59375 C 81.550781 -26.59375 88.828125 -29.582031 94.515625 -35.5625 C 100.210938 -41.550781 103.0625 -49.566406 103.0625 -59.609375 C 103.0625 -69.660156 100.210938 -77.675781 94.515625 -83.65625 C 88.828125 -89.644531 81.550781 -92.640625 72.6875 -92.640625 C 63.820312 -92.640625 56.507812 -89.644531 50.75 -83.65625 C 44.988281 -77.675781 42.109375 -69.660156 42.109375 -59.609375 C 42.109375 -49.566406 44.988281 -41.550781 50.75 -35.5625 C 56.507812 -29.582031 63.820312 -26.59375 72.6875 -26.59375 Z M 72.6875 -26.59375 "/></g></g></g><g fill="#ffffff" fill-opacity="1"><g transform="translate(280.506312, 191.405562)"><g><path d="M 67.15625 -46.765625 L 50.53125 -30.359375 L 50.53125 0 L 15.953125 0 L 15.953125 -164.453125 L 50.53125 -164.453125 L 50.53125 -71.359375 L 101.0625 -119.234375 L 142.28125 -119.234375 L 92.640625 -68.703125 L 146.71875 0 L 104.828125 0 Z M 67.15625 -46.765625 "/></g></g></g><g fill="#ffffff" fill-opacity="1"><g transform="translate(417.244518, 191.405562)"><g><path d="M 92.859375 -5.765625 C 89.460938 -3.253906 85.289062 -1.367188 80.34375 -0.109375 C 75.394531 1.140625 70.1875 1.765625 64.71875 1.765625 C 50.53125 1.765625 39.554688 -1.851562 31.796875 -9.09375 C 24.046875 -16.332031 20.171875 -26.96875 20.171875 -41 L 20.171875 -89.984375 L 1.765625 -89.984375 L 1.765625 -116.578125 L 20.171875 -116.578125 L 20.171875 -145.609375 L 54.734375 -145.609375 L 54.734375 -116.578125 L 84.4375 -116.578125 L 84.4375 -89.984375 L 54.734375 -89.984375 L 54.734375 -41.4375 C 54.734375 -36.414062 56.023438 -32.535156 58.609375 -29.796875 C 61.203125 -27.066406 64.863281 -25.703125 69.59375 -25.703125 C 75.0625 -25.703125 79.710938 -27.179688 83.546875 -30.140625 Z M 92.859375 -5.765625 "/></g></g></g><g fill="#ffffff" fill-opacity="1"><g transform="translate(500.351182, 191.405562)"><g><path d="M 132.75 -59.171875 C 132.75 -58.734375 132.53125 -55.628906 132.09375 -49.859375 L 41.890625 -49.859375 C 43.515625 -42.472656 47.351562 -36.640625 53.40625 -32.359375 C 59.46875 -28.078125 67.003906 -25.9375 76.015625 -25.9375 C 82.222656 -25.9375 87.726562 -26.859375 92.53125 -28.703125 C 97.332031 -30.546875 101.800781 -33.460938 105.9375 -37.453125 L 124.328125 -17.515625 C 113.097656 -4.660156 96.695312 1.765625 75.125 1.765625 C 61.6875 1.765625 49.796875 -0.851562 39.453125 -6.09375 C 29.109375 -11.34375 21.128906 -18.617188 15.515625 -27.921875 C 9.898438 -37.234375 7.09375 -47.796875 7.09375 -59.609375 C 7.09375 -71.285156 9.863281 -81.8125 15.40625 -91.1875 C 20.945312 -100.570312 28.554688 -107.882812 38.234375 -113.125 C 47.910156 -118.375 58.734375 -121 70.703125 -121 C 82.367188 -121 92.929688 -118.488281 102.390625 -113.46875 C 111.847656 -108.445312 119.269531 -101.242188 124.65625 -91.859375 C 130.050781 -82.484375 132.75 -71.585938 132.75 -59.171875 Z M 70.921875 -94.859375 C 63.085938 -94.859375 56.507812 -92.640625 51.1875 -88.203125 C 45.875 -83.773438 42.625 -77.71875 41.4375 -70.03125 L 100.171875 -70.03125 C 98.992188 -77.570312 95.742188 -83.59375 90.421875 -88.09375 C 85.097656 -92.601562 78.597656 -94.859375 70.921875 -94.859375 Z M 70.921875 -94.859375 "/></g></g></g><g fill="#ffffff" fill-opacity="1"><g transform="translate(630.662466, 191.405562)"><g><path d="M 48.984375 -103.5 C 53.117188 -109.257812 58.691406 -113.613281 65.703125 -116.5625 C 72.722656 -119.519531 80.816406 -121 89.984375 -121 L 89.984375 -89.09375 C 86.140625 -89.382812 83.550781 -89.53125 82.21875 -89.53125 C 72.320312 -89.53125 64.566406 -86.757812 58.953125 -81.21875 C 53.335938 -75.6875 50.53125 -67.378906 50.53125 -56.296875 L 50.53125 0 L 15.953125 0 L 15.953125 -119.234375 L 48.984375 -119.234375 Z M 48.984375 -103.5 "/></g></g></g><g fill="#0565ef" fill-opacity="1"><g transform="translate(715.110321, 191.405562)"><g><path d="M 18.390625 -155.140625 L 88.875 -155.140625 C 105.71875 -155.140625 120.601562 -151.925781 133.53125 -145.5 C 146.457031 -139.070312 156.503906 -130.019531 163.671875 -118.34375 C 170.835938 -106.675781 174.421875 -93.082031 174.421875 -77.5625 C 174.421875 -62.050781 170.835938 -48.457031 163.671875 -36.78125 C 156.503906 -25.113281 146.457031 -16.066406 133.53125 -9.640625 C 120.601562 -3.210938 105.71875 0 88.875 0 L 18.390625 0 Z M 87.09375 -29.46875 C 102.613281 -29.46875 114.988281 -33.789062 124.21875 -42.4375 C 133.457031 -51.082031 138.078125 -62.789062 138.078125 -77.5625 C 138.078125 -92.34375 133.457031 -104.050781 124.21875 -112.6875 C 114.988281 -121.332031 102.613281 -125.65625 87.09375 -125.65625 L 54.296875 -125.65625 L 54.296875 -29.46875 Z M 87.09375 -29.46875 "/></g></g></g><g fill="#0565ef" fill-opacity="1"><g transform="translate(888.637092, 191.405562)"><g><path d="M 18.390625 -155.140625 L 54.296875 -155.140625 L 54.296875 0 L 18.390625 0 Z M 18.390625 -155.140625 "/></g></g></g><g fill="#0565ef" fill-opacity="1"><g transform="translate(951.798154, 191.405562)"><g><path d="M 132.3125 -80.671875 C 141.175781 -77.859375 148.117188 -73.164062 153.140625 -66.59375 C 158.160156 -60.019531 160.671875 -51.929688 160.671875 -42.328125 C 160.671875 -28.734375 155.390625 -18.28125 144.828125 -10.96875 C 134.265625 -3.65625 118.863281 0 98.625 0 L 18.390625 0 L 18.390625 -155.140625 L 94.1875 -155.140625 C 113.101562 -155.140625 127.617188 -151.519531 137.734375 -144.28125 C 147.859375 -137.039062 152.921875 -127.210938 152.921875 -114.796875 C 152.921875 -107.265625 151.109375 -100.539062 147.484375 -94.625 C 143.867188 -88.71875 138.8125 -84.066406 132.3125 -80.671875 Z M 54.078125 -128.09375 L 54.078125 -91.53125 L 89.765625 -91.53125 C 98.628906 -91.53125 105.347656 -93.082031 109.921875 -96.1875 C 114.503906 -99.289062 116.796875 -103.867188 116.796875 -109.921875 C 116.796875 -115.984375 114.503906 -120.523438 109.921875 -123.546875 C 105.347656 -126.578125 98.628906 -128.09375 89.765625 -128.09375 Z M 95.96875 -27.03125 C 105.414062 -27.03125 112.539062 -28.582031 117.34375 -31.6875 C 122.144531 -34.789062 124.546875 -39.59375 124.546875 -46.09375 C 124.546875 -58.945312 115.019531 -65.375 95.96875 -65.375 L 54.078125 -65.375 L 54.078125 -27.03125 Z M 95.96875 -27.03125 "/></g></g></g><g fill="#0565ef" fill-opacity="1"><g transform="translate(1108.481963, 191.405562)"><g><path d="M 92.859375 -54.96875 L 92.859375 0 L 56.953125 0 L 56.953125 -55.40625 L -3.109375 -155.140625 L 35.015625 -155.140625 L 76.453125 -86.21875 L 117.90625 -155.140625 L 153.140625 -155.140625 Z M 92.859375 -54.96875 "/></g></g></g><g fill="#0565ef" fill-opacity="1"><g transform="translate(1239.236499, 191.405562)"><g><path d="M 120.5625 -33.25 L 48.53125 -33.25 L 34.796875 0 L -2 0 L 67.15625 -155.140625 L 102.609375 -155.140625 L 171.984375 0 L 134.3125 0 Z M 109.265625 -60.5 L 84.65625 -119.90625 L 60.0625 -60.5 Z M 109.265625 -60.5 "/></g></g></g></g></g></g></svg>